<?xml version="1.0" encoding="utf-8"?>
<!-- Generator: Adobe Illustrator 21.0.2, SVG Export Plug-In . SVG Version: 6.00 Build 0)  -->
<svg version="1.1" id="Layer_1" xmlns="http://www.w3.org/2000/svg" xmlns:xlink="http://www.w3.org/1999/xlink" x="0px" y="0px"
	 width="800px" height="800px" viewBox="0 0 800 800" enable-background="new 0 0 800 800" xml:space="preserve">
<g id="XMLID_684_">
	<g id="XMLID_698_">
		<path id="XMLID_945_" fill="#EAEAEA" d="M688.9,775.2H112.1c-47.9,0-87-38.8-87-87V111.4c0-47.9,38.8-87,87-87h576.8
			c47.9,0,87,38.8,87,87v577.1C775.9,736.4,737.1,775.2,688.9,775.2z"/>
	</g>
	<g id="XMLID_706_">
		<path id="XMLID_944_" fill="#BAC6E5" d="M688.9,24.4H112.1c-47.9,0-87,38.8-87,87v83.9h750.9v-83.9
			C775.9,63.2,737.1,24.4,688.9,24.4z"/>
	</g>
	<g id="XMLID_696_">
		<path id="XMLID_918_" fill="#282F6B" d="M688.9,796.6H112.1C52.3,796.6,3.7,748,3.7,688.2V111.4C3.7,51.6,52.3,3,112.1,3h576.8
			c59.8,0,108.4,48.6,108.4,108.4v577.1C797.3,748,748.7,796.6,688.9,796.6z M112.1,45.7c-36,0-65.7,29.4-65.7,65.7v577.1
			c0,36,29.4,65.7,65.7,65.7h576.8c36,0,65.7-29.4,65.7-65.7V111.4c0-36-29.4-65.7-65.7-65.7H112.1z"/>
	</g>
	<g id="XMLID_699_">
		<rect id="XMLID_917_" x="25.1" y="161.4" fill="#282F6B" width="750.9" height="42.6"/>
	</g>
	<g id="XMLID_701_">
		<path id="XMLID_943_" fill="#282F6B" d="M124,79.6c-27.3,0-27.3,42.3,0,42.3C151.3,122.2,151.3,79.6,124,79.6z"/>
	</g>
	<g id="XMLID_700_">
		<path id="XMLID_942_" fill="#449243" d="M204,79.6c-27.3,0-27.3,42.3,0,42.3C231.3,122.2,231.3,79.6,204,79.6z"/>
	</g>
	<g id="XMLID_702_">
		<path id="XMLID_941_" fill="#C42C4A" d="M284.1,79.6c-27.3,0-27.3,42.3,0,42.3C311.4,122.2,311.4,79.6,284.1,79.6z"/>
	</g>
</g>
</svg>
