<svg id="Layer_1" xmlns="http://www.w3.org/2000/svg" width="800" height="800" viewBox="0 0 800 800"><g id="XMLID_684_"><g id="XMLID_698_"><path id="XMLID_945_" fill="#EAEAEA" d="M688.9 775.2H112.1c-47.9 0-87-38.8-87-87V111.4c0-47.9 38.8-87 87-87h576.8c47.9 0 87 38.8 87 87v577.1c0 47.9-38.8 86.7-87 86.7z"/></g><g id="XMLID_706_"><path id="XMLID_944_" fill="#BAC6E5" d="M688.9 24.4H112.1c-47.9 0-87 38.8-87 87v83.9H776v-83.9c-.1-48.2-38.9-87-87.1-87z"/></g><g id="XMLID_696_"><path id="XMLID_918_" fill="#282F6B" d="M688.9 796.6H112.1C52.3 796.6 3.7 748 3.7 688.2V111.4C3.7 51.6 52.3 3 112.1 3h576.8c59.8 0 108.4 48.6 108.4 108.4v577.1c0 59.5-48.6 108.1-108.4 108.1zM112.1 45.7c-36 0-65.7 29.4-65.7 65.7v577.1c0 36 29.4 65.7 65.7 65.7h576.8c36 0 65.7-29.4 65.7-65.7V111.4c0-36-29.4-65.7-65.7-65.7H112.1z"/></g><g id="XMLID_699_"><path id="XMLID_917_" fill="#282F6B" d="M25.1 161.4H776V204H25.1z"/></g><g id="XMLID_701_"><path id="XMLID_943_" fill="#282F6B" d="M124 79.6c-27.3 0-27.3 42.3 0 42.3 27.3.3 27.3-42.3 0-42.3z"/></g><g id="XMLID_700_"><path id="XMLID_942_" fill="#449243" d="M204 79.6c-27.3 0-27.3 42.3 0 42.3 27.3.3 27.3-42.3 0-42.3z"/></g><g id="XMLID_702_"><path id="XMLID_941_" fill="#C42C4A" d="M284.1 79.6c-27.3 0-27.3 42.3 0 42.3 27.3.3 27.3-42.3 0-42.3z"/></g></g></svg>