<svg width="77" height="32" viewBox="0 0 77 32" xmlns="http://www.w3.org/2000/svg" xmlns:xlink="http://www.w3.org/1999/xlink"><title>logo</title><defs><path id="path-1" d="M4 6h77v32H4z"/><mask id="mask-2" x="0" y="0" width="77" height="32" fill="#fff"><use xlink:href="#path-1"/></mask></defs><g id="Page-1" fill="none" fill-rule="evenodd"><g id="Artboard" transform="translate(-4 -6)"><use id="Rectangle" stroke="#222" mask="url(#mask-2)" stroke-width="4" xlink:href="#path-1"/><path d="M15.16 16.864v4.608h7.44v2.616h-7.44V31h-2.832V14.224h11.184l-.024 2.64H15.16zm18.552 11.64c1.312 0 2.352-.448 3.12-1.344.768-.896 1.152-2.112 1.152-3.648v-9.288h2.832v9.408c0 2.416-.664 4.276-1.992 5.58-1.328 1.304-3.032 1.956-5.112 1.956s-3.784-.652-5.112-1.956c-1.328-1.304-1.992-3.164-1.992-5.58v-9.408h2.832v9.288c0 1.536.384 2.752 1.152 3.648.768.896 1.808 1.344 3.12 1.344zm14.592-11.568c-.528.336-.792.844-.792 1.524s.264 1.2.792 1.56c.528.36 1.652.748 3.372 1.164 1.72.416 3.016 1 3.888 1.752.872.752 1.308 1.86 1.308 3.324 0 1.464-.552 2.652-1.656 3.564-1.104.912-2.552 1.368-4.344 1.368-2.624 0-4.952-.904-6.984-2.712l1.776-2.136c1.696 1.472 3.456 2.208 5.28 2.208.912 0 1.636-.196 2.172-.588.536-.392.804-.912.804-1.56s-.252-1.152-.756-1.512c-.504-.36-1.372-.688-2.604-.984-1.232-.296-2.168-.568-2.808-.816a6.343 6.343 0 0 1-1.704-.972c-.992-.752-1.488-1.904-1.488-3.456s.564-2.748 1.692-3.588c1.128-.84 2.524-1.26 4.188-1.26 1.072 0 2.136.176 3.192.528 1.056.352 1.968.848 2.736 1.488l-1.512 2.136c-.496-.448-1.168-.816-2.016-1.104a7.766 7.766 0 0 0-2.508-.432c-.824 0-1.5.168-2.028.504zm23.856-2.712v2.664h-8.952v4.44h8.04v2.52h-8.04v4.488h9.24V31H60.376V14.224H72.16z" id="FUSE" fill="#222"/></g></g></svg>