<svg width="20" height="20" viewBox="0 0 20 20" xmlns="http://www.w3.org/2000/svg"><path d="M13.547 1H6.463C3.452 1 1 3.44 1 6.44v7.121C1 16.561 3.452 19 6.463 19h7.073C16.559 19 19 16.561 19 13.561V6.44c.01-3-2.441-5.44-5.453-5.44zm3.932 12.98a3.46 3.46 0 0 1-3.463 3.449H6.133a3.453 3.453 0 0 1-3.462-3.449V6.19a3.46 3.46 0 0 1 3.462-3.45h7.884a3.455 3.455 0 0 1 3.463 3.45v7.79h-.001z"/><circle cx="14.87" cy="5.26" r="1.09"/><path d="M10.03 5.45c-2.55 0-4.63 2.06-4.63 4.6 0 2.55 2.07 4.61 4.63 4.61s4.63-2.061 4.63-4.61a4.626 4.626 0 0 0-4.63-4.6zm.05 7.55c-1.66 0-3-1.34-3-2.99 0-1.65 1.34-2.99 3-2.99s3 1.34 3 2.99c0 1.65-1.34 2.99-3 2.99z"/></svg>