<svg width="20" height="20" viewBox="0 0 20 20" xmlns="http://www.w3.org/2000/svg"><path d="M1.78 7.31c-.23-.23-.42-.52-.61-.77-.34-.43-.14-.42.28-.79C2.5 4.82 3.5 3.81 4.65 3c1.04-.73 2.42-1.2 3.36-.04.87 1.07.89 2.69 1.11 3.98.22 1.34.43 2.71.9 3.99.13.36.38 1.04.83 1.1.58.08 1.17-.94 1.44-1.32.7-1.01 1.65-2.37 1.53-3.67-.12-1.38-1.61-1.12-2.54-.79.15-1.55 1.59-3.29 2.98-3.88 1.47-.61 3.66-.6 4.4 1.06.79 1.8.08 3.89-.78 5.52-.94 1.77-2.15 3.41-3.44 4.94-1.14 1.36-2.49 2.85-4.19 3.5-1.94.74-3.09-.7-3.75-2.37-.72-1.82-1.08-3.86-1.6-5.75-.22-.8-.48-1.71-1-2.37-.68-.85-1.45-.05-2.12.41-.09-.09.05-.04 0 0z"/></svg>